<svg width="19" height="23" viewBox="0 0 20 24" xmlns="http://www.w3.org/2000/svg">
  <!-- macOS Big Sur link hand: index finger + folded knuckles + defined thumb -->
  <path
    d="M4.6,9.6 L4.6,3.8 A1.5,1.5 0 0 1 7.6,3.8 L7.6,9.2 L9,9.2 L9,8.3
       A1.35,1.35 0 0 1 11.7,8.3 L11.7,9.7 L12.7,9.7 L12.7,9.1
       A1.3,1.3 0 0 1 15.3,9.1 L15.3,10.4 L16.2,10.6
       C17.6,10.9 18.1,11.7 18.1,13.3 L18.1,17.4
       C18.1,20.5 16.6,22.4 13.5,22.4 L9.8,22.4
       C7.7,22.4 6.5,21.4 5.5,19.7 L3.6,16.6
       C2.9,15.4 1.9,15 1.9,13.9 C1.9,12.9 3.1,12.8 4,13.4 L4.6,13.8 Z"
    fill="#000000"
    stroke="#a3f04b"
    stroke-width="1.3"
    stroke-linejoin="round"
    stroke-linecap="round"
  />
</svg>
